<?xml version="1.0" encoding="UTF-8" standalone="no"?>
<!-- Created with Inkscape (http://www.inkscape.org/) -->

<svg
   width="1028.3303"
   height="682.19159"
   viewBox="0 0 272.07906 180.49652"
   version="1.1"
   id="svg1"
   inkscape:version="1.4 (86a8ad7, 2024-10-11)"
   sodipodi:docname="aboutme.svg"
   xmlns:inkscape="http://www.inkscape.org/namespaces/inkscape"
   xmlns:sodipodi="http://sodipodi.sourceforge.net/DTD/sodipodi-0.dtd"
   xmlns="http://www.w3.org/2000/svg"
   xmlns:svg="http://www.w3.org/2000/svg">
  <sodipodi:namedview
     id="namedview1"
     pagecolor="#ffffff"
     bordercolor="#000000"
     borderopacity="0.25"
     inkscape:showpageshadow="2"
     inkscape:pageopacity="0.0"
     inkscape:pagecheckerboard="0"
     inkscape:deskcolor="#d1d1d1"
     inkscape:document-units="mm"
     inkscape:zoom="0.71891835"
     inkscape:cx="210.03776"
     inkscape:cy="177.34976"
     inkscape:window-width="1920"
     inkscape:window-height="1009"
     inkscape:window-x="-8"
     inkscape:window-y="-8"
     inkscape:window-maximized="1"
     inkscape:current-layer="layer1" />
  <defs
     id="defs1">
    <inkscape:path-effect
       effect="spiro"
       id="path-effect1"
       is_visible="true"
       lpeversion="1" />
  </defs>
  <g
     inkscape:label="Layer 1"
     inkscape:groupmode="layer"
     id="layer1"
     transform="translate(-60.834041,-101.74201)">
    <path
       style="fill:#bfd8bd;fill-opacity:1;stroke:none;stroke-width:3.175;stroke-linejoin:round"
       d="m 146.315,103.24555 c 5.17587,-10.32128 13.01554,-19.248242 22.38891,-25.990522 9.37337,-6.74228 20.25413,-11.315354 31.56656,-13.627809 22.62485,-4.624911 46.56887,-0.112263 67.25336,10.155429 12.74629,6.327202 24.50977,14.879621 33.60961,25.820105 9.09984,10.940487 15.4497,24.344797 17.04601,38.485277 2.02015,17.89494 -3.7114,36.20109 -14.03106,50.95963 -10.31965,14.75854 -24.97786,26.13833 -41.00713,34.34639 -6.93545,3.55142 -14.15773,6.54979 -20.90746,10.44262 -6.74973,3.89284 -13.10995,8.79373 -17.36763,15.31946 -4.51746,6.92389 -6.39105,15.20996 -9.94189,22.67583 -1.7016,3.57772 -3.79368,6.97158 -6.25142,10.07883 -6.7014,8.47239 -16.11055,14.69184 -26.41379,17.93736 -10.30324,3.24552 -21.45789,3.55865 -32.02307,1.30763 -21.13037,-4.50204 -39.2705,-19.09264 -51.01512,-37.22616 -2.360352,-3.64435 -4.501018,-7.45595 -6.002084,-11.53018 -1.501066,-4.07423 -2.350824,-8.42979 -2.083396,-12.7635 0.269762,-4.37153 1.671014,-8.62612 3.70597,-12.50452 2.034956,-3.8784 4.693451,-7.40018 7.57109,-10.70204 5.75528,-6.60371 12.44356,-12.41748 17.53613,-19.54475 9.50337,-13.30036 12.67281,-30.0002 14.96735,-46.18503 2.29455,-16.18482 4.07137,-32.84178 11.39906,-47.45405 z"
       id="path1"
       inkscape:path-effect="#path-effect1"
       inkscape:original-d="m 146.315,103.24555 c 0.98141,-28.951675 179.06366,-81.099445 121.20883,-29.462902 -72.275,64.506822 26.36566,47.498692 50.65562,64.305382 24.28996,16.80669 -46.5735,65.18706 -55.03819,85.30602 -8.46468,20.11896 -25.51673,17.2974 -38.27509,25.76208 -12.75837,8.46468 -8.22441,13.84312 -9.94189,22.67583 -1.71747,8.83272 -2.6938,7.87064 -6.25142,10.07883 -3.55762,2.20816 -63.08023,-13.81017 -109.45198,-17.98117 -46.371746,-4.17103 -5.631948,-19.5093 -8.08548,-24.29368 -2.453531,-4.78439 14.46004,-26.18997 28.81319,-42.75131 14.35316,-16.56134 25.385,-64.68741 26.36641,-93.63908 z"
       transform="matrix(0.56106926,0.65660414,-0.883848,0.7479678,247.33162,-66.464457)"
       sodipodi:nodetypes="sssssssssss" />
  </g>
</svg>
