<?xml version="1.0" encoding="UTF-8" standalone="no"?>
<!-- Created with Inkscape (http://www.inkscape.org/) -->

<svg
   version="1.1"
   id="svg1"
   width="2351.2468"
   height="855.43329"
   viewBox="0 0 2351.2468 855.43332"
   sodipodi:docname="name.svg"
   inkscape:version="1.4 (86a8ad7, 2024-10-11)"
   xmlns:inkscape="http://www.inkscape.org/namespaces/inkscape"
   xmlns:sodipodi="http://sodipodi.sourceforge.net/DTD/sodipodi-0.dtd"
   xmlns="http://www.w3.org/2000/svg"
   xmlns:svg="http://www.w3.org/2000/svg"
   style="pointer-events: none;">
  <defs
     id="defs1" />
  <sodipodi:namedview
     id="namedview1"
     pagecolor="#ffffff"
     bordercolor="#000000"
     borderopacity="0.25"
     inkscape:showpageshadow="2"
     inkscape:pageopacity="0.0"
     inkscape:pagecheckerboard="0"
     inkscape:deskcolor="#d1d1d1"
     inkscape:zoom="0.57752866"
     inkscape:cx="1185.2226"
     inkscape:cy="522.05201"
     inkscape:window-width="1920"
     inkscape:window-height="1009"
     inkscape:window-x="-8"
     inkscape:window-y="-8"
     inkscape:window-maximized="1"
     inkscape:current-layer="g1" />
  <g
     inkscape:groupmode="layer"
     id="layer2"
     inkscape:label="name"
     transform="translate(-64.078793,-206.6272)">
    <rect
       style="fill:#bfd8bd;fill-opacity:1"
       id="rect111"
       width="1291.7108"
       height="283.9686"
       x="207.78189"
       y="330.71951" />
    <rect
       style="fill:#bfd8bd;fill-opacity:1"
       id="rect112"
       width="1565.2903"
       height="266.65344"
       x="746.28333"
       y="664.90204" />
  </g>
  <g
     inkscape:groupmode="layer"
     inkscape:label="Image"
     id="g1"
     transform="translate(-64.078793,-206.6272)">
    
    <path
       style="display:inline;fill:#77bfa3;fill-opacity:1;stroke:none;pointer-events: auto;"
       d="m 645.33335,208.61831 c -23.02002,2.01449 -46.25675,-0.243 -69.33333,0.7675 -124.19996,5.4384 -264.50811,-3.78084 -380.00001,50.46704 -63.43901,29.79801 -102.641293,80.58577 -122.294248,146.81379 -10.031769,33.80583 -13.90859,64.42619 -3.340535,98.66666 17.772868,57.58407 67.134473,103.39778 114.968113,136.74788 80.67641,56.24837 183.65357,50.04459 277.33334,56.46614 47.32308,3.2439 103.0247,7.84514 144.00001,34.38477 43.84066,28.39542 50.99894,95.73298 70.50106,140.40119 25.78784,59.0651 73.54777,101.65877 132.16561,126.83642 63.40666,27.2345 134.81755,33.5474 202.66664,40.0566 84.4081,8.0979 168.6638,12.1239 253.3334,15.8261 183.0644,8.0046 367.5838,8.017 550.6667,0 138.5014,-6.0648 281.5872,-7.523 417.3333,-39.5915 58.5221,-13.8252 120.0819,-41.00881 153.3993,-93.79429 55.491,-87.91552 23.4427,-203.94945 -38.319,-279.99998 -20.7846,-25.59318 -43.5456,-47.21102 -73.747,-61.16976 -54.93,-25.38802 -126.087,-24.16357 -185.3333,-24.16357 -82.9395,0 -166.6689,3.11361 -249.3333,-2.54736 -40.5005,-2.77352 -81.0378,-5.94361 -120,-18.44751 C 1647.2245,512.98304 1611.2645,446.11016 1567.3344,389.33331 1535.7403,348.50006 1497.76,314.61961 1452,290.51846 1371.9502,248.35724 1277.3409,242.4326 1189.3334,231.61831 1066.0726,216.47216 941.36592,213.68537 817.33336,210.64712 760.73692,209.26073 701.48578,203.7045 645.33335,208.61831 M 312.00001,506.66664 c -3.92564,21.14477 -1.41929,45.30346 -14.0638,63.9475 -10.13758,14.94767 -34.18767,18.39787 -46.56377,3.9126 -16.85371,-19.72599 -13.31127,-54.48942 -15.59877,-78.52677 -2.84166,-29.86051 -1.64382,-60.88085 1.33437,-90.66666 1.40857,-14.08748 1.5186,-30.03206 8.70471,-42.66666 9.84949,-17.3173 26.67692,-20.20093 44.85393,-21.45264 31.77579,-2.18815 67.94145,-4.42196 96,13.573 30.70597,19.69287 38.25012,57.84203 21.62451,89.21296 -5.06954,9.56576 -22.71069,24.73877 -20.63481,36 3.40581,18.47551 20.83228,36.30729 27.00517,54.66667 8.95826,26.64363 -7.52746,62.69034 -39.99487,44.6276 -29.37683,-16.34335 -37.10362,-53.75838 -62.66667,-72.6276 M 477.33335,340.3858 c 15.39705,-2.00577 31.30794,0.2225 46.66667,0.89502 19.23388,0.84221 40.64075,0.36971 58.66667,8.285 17.67452,7.76098 26.39762,30.36612 12.81274,46.30965 -12.79163,15.01253 -41.18681,16.51725 -59.47941,17.40641 -6.84697,0.33284 -20.632,-0.1652 -21.44446,9.40429 -0.87606,10.31852 12.89197,11.62622 20.11112,11.98047 18.99504,0.93205 55.77515,5.54411 47.76238,33.33333 -5.18962,17.99821 -29.44341,20.06763 -45.09571,21.21501 -6.82052,0.5 -17.44983,-0.15837 -21.29012,6.93001 -4.8986,9.04191 6.5717,13.24894 13.29012,14.13582 19.53357,2.57862 42.84868,0.56454 59.99899,12.18628 25.42728,17.23055 9.38529,47.40202 -14.66565,54.29622 -27.48129,7.87753 -58.30262,7.24764 -86.66667,7.23666 -11.96102,-0.005 -26.75285,-0.85035 -34.94751,-10.91358 -7.26819,-8.92553 -8.87346,-22.07519 -10.38583,-33.08642 -3.19263,-23.24495 -3.03162,-45.98795 -4.05249,-69.33333 -1.25736,-28.75334 0.0872,-58.05053 4.05249,-86.66666 3.09977,-22.37004 9.93205,-40.39201 34.66667,-43.61418 m 234.66667,-0.005 c 35.74594,-4.22006 52.96257,18.93668 65.06584,48.95263 16.06324,39.83651 28.39462,81.8256 36.52987,123.99999 4.51579,23.41065 11.99235,65.81014 -21.5957,70.26131 -25.04957,3.31966 -27.19483,-25.21435 -46.66667,-30.8313 -13.89339,-4.00773 -50.10645,-7.16992 -62.42082,1.55868 -10.47119,7.42212 -12.67831,21.57243 -25.5802,27.07096 -11.39051,4.85441 -26.18937,2.05005 -33.81482,-8.11312 -13.76319,-18.34342 -5.43819,-47.68782 -1.13172,-67.94653 7.69039,-36.17716 18.05408,-72.08723 31.20374,-106.66666 11.83154,-31.11319 22.90906,-54.0948 58.41048,-58.28596 m 212.00001,0 c 37.47559,-4.43645 92.83457,10.21045 82.28087,58.28596 -5.8175,26.50041 -36.44045,16.71167 -55.6142,14.89299 -29.6827,-2.81551 -50.71859,20.32723 -50.05974,49.10701 0.47486,20.74153 13.93693,50.49039 39.39307,47.54118 29.80282,-3.4528 -2.72331,-28.92953 -3.85392,-39.54118 -2.62403,-24.6276 27.83309,-31.57991 46.52059,-29.12142 41.4001,5.44645 52.7464,53.98193 39.9126,87.78808 -9.9281,26.15226 -33.618,43.35197 -59.9126,50.46501 -13.698,3.70548 -29.89453,5.44889 -44,3.42903 -98.28305,-14.07397 -128.29005,-153.81607 -55.99895,-217.6481 17.58391,-15.52636 38.4764,-22.49283 61.33228,-25.19856 m 211.99997,0 c 33.6148,-3.96623 50.892,16.5686 63.0402,44.95263 17.5879,41.09383 29.6748,85.53711 38.2922,129.33333 4.668,23.72395 11.3665,64.87198 -22.6657,68.94238 -24.3768,2.91552 -26.4622,-24.78939 -45.3333,-30.73869 -14.0919,-4.44255 -49.8496,-6.96704 -62.6091,1.45166 -10.5998,6.99373 -12.8109,21.1748 -25.3909,26.91154 -11.647,5.31119 -26.1752,2.05192 -34.142,-7.92082 -14.34,-17.95076 -5.3534,-47.87467 -1.3252,-67.97941 7.349,-36.67814 18.4367,-73.06615 31.7234,-107.99999 6.4728,-17.01847 13.2846,-36.30957 27.9701,-48.0957 8.9269,-7.16447 19.6112,-7.57918 30.4403,-8.85693 m 245.3334,96.95263 c 0.6855,-15.95915 2.2322,-32.13094 4.2078,-48 1.7033,-13.68148 4.5624,-30.96175 14.7058,-41.08642 14.7815,-14.75415 38.7145,-7.82194 46.395,10.41976 9.6756,22.98006 10.1105,50.15274 10.7109,74.66666 0.8208,33.50569 1.436,66.60408 -3.0628,99.99999 -2.7995,20.78109 -9.8845,55.08203 -38.2901,50.22738 -10.8107,-1.84758 -19.3644,-10.65463 -26.6142,-18.22738 -13.7705,-14.38379 -24.8444,-32.22322 -34.9043,-49.33333 -6.028,-10.25252 -11.4723,-23.48218 -21.1481,-30.66666 -2.1883,17.31542 -3.6693,34.65144 -5.5545,51.99999 -1.4397,13.24894 -4.7369,28.88037 -14.57,38.52677 -13.5909,13.33277 -37.0055,9.25741 -45.321,-7.8601 -8.6267,-17.75814 -9.3454,-39.375 -10.6738,-58.66667 -2.6617,-38.65161 -2.8339,-78.82681 1.8333,-117.33332 2.353,-19.41317 7.3374,-51.48104 32.9526,-51.75618 33.1868,-0.35653 56.0586,44.5887 70.105,69.08951 5.0581,8.82259 9.9684,23.18961 19.2284,28 m -88,-74.66666 h 1.3333 c 3.5321,4.44335 6.3022,6.05712 12,5.33333 -2.7058,-13.40064 -16.3771,-16.64404 -24.464,-5.31275 -7.636,10.69939 -7.9656,28.64836 -8.9835,41.31275 -0.2683,3.33805 -3.7957,18.74226 3.7695,17.25309 4.548,-0.89527 4.1798,-11.22103 4.3447,-14.58643 0.7657,-15.62581 3.555,-30.75154 12,-43.99999 M 285.33334,364.0001 c -0.97552,-12.52067 -15.77337,-6.80282 -21.96089,-0.62761 -8.69269,8.67538 -9.28893,22.542 -10.80661,33.96094 -0.36553,2.75033 -2.4305,18.94621 4.42182,15.65845 4.53747,-2.17709 3.91075,-13.9939 4.51955,-18.32512 2.20129,-15.66072 6.30959,-28.29451 23.82613,-30.66666 m 188.00514,-7.25619 c -13.17863,3.50041 -14.66097,19.91228 -15.93824,31.25619 -0.33618,2.98559 -3.26798,15.7513 3.6399,13.66463 7.23042,-2.18416 5.44999,-24.69694 8.89713,-30.92489 4.64982,-8.40079 12.67436,-3.4803 18.56584,-8.30558 7.73576,-6.33585 -12.44837,-6.41178 -15.16463,-5.69035 m 229.32821,-0.1193 c -18.85913,3.6259 -25.21847,23.76709 -31.46708,39.37549 -1.03483,2.58488 -10.00688,21.40616 -1.80864,20.10489 4.42648,-0.70263 6.26852,-7.30248 7.67489,-10.77156 3.95894,-9.76538 7.12744,-20.48299 12.99796,-29.3138 7.28573,-10.95972 16.53516,-7.16805 25.2994,-13.58431 8.44385,-6.18172 -9.92553,-6.34342 -12.69653,-5.81071 m 210.66667,-0.006 c -12.1726,2.15096 -24.74446,6.62304 -34.66666,14.10595 -2.04965,1.54574 -14.95695,13.2312 -5.18213,12.70785 5.78108,-0.30949 11.1346,-6.01791 15.84879,-8.86426 7.80843,-4.71452 16.3663,-7.76172 25.33334,-9.33643 4.37166,-0.76766 13.06201,0.0325 16.19856,-3.5288 6.26425,-7.11239 -14.90348,-5.54875 -17.5319,-5.08431 M 1088,415.99998 c 8.6289,1.41959 10.2695,-5.01392 13.0669,-12 4.6599,-11.63721 8.3983,-27.35921 18.9866,-35.13477 7.4378,-5.46199 20.4117,-1.97745 21.2799,-12.86523 -32.5339,0 -48.8148,29.8549 -53.3334,60 M 862.73359,388.23452 c -5.23812,2.2596 -5.58814,12.50268 0.98763,8.98356 3.92017,-2.09799 5.08423,-11.60287 -0.98763,-8.98356 m -540.06177,3.32202 c -17.63671,5.13102 -16.09845,48.35009 3.99384,42.15226 19.42973,-5.99349 18.87834,-48.80648 -3.99384,-42.15226 m 135.00825,18.01131 c -4.40015,2.30973 -1.84607,11.43416 2.87447,8.66259 3.5166,-2.06469 1.83183,-11.13305 -2.87447,-8.66259 m 205.53911,13.33333 c -4.36581,2.22746 -2.16777,10.78727 2.59668,7.65023 3.57886,-2.35645 2.22636,-10.11092 -2.59668,-7.65023 m 423.68002,0 c -4.1558,1.99984 -3.315,9.73258 1.8827,8.09676 4.4205,-1.39128 3.1075,-10.49805 -1.8827,-8.09676 m -370.89918,34.43213 c -5.23657,9.21028 -10.96443,23.68107 -9.13476,34.52262 1.30167,7.71264 15.38029,8.8116 19.7644,3.17383 6.05518,-7.78679 -3.88012,-30.44344 -7.96297,-37.69645 h -2.66667 m 422.66668,0 c -2.0407,5.2902 -4.0906,10.55802 -5.7057,16 -1.6205,5.45963 -4.9466,14.22973 -2.6184,19.80761 2.7281,6.53556 15.0606,6.91024 19.5185,2.10694 6.334,-6.82471 -3.2051,-35.32813 -11.1944,-37.91455 M 896.00003,676.38066 c 24.80558,-2.93653 55.67025,3.698 73.20882,22.3055 12.3584,13.11157 18.17928,37.19856 5.01856,51.85497 -23.50993,26.18148 -59.82886,-18.14623 -85.64096,9.5988 -3.60579,3.87581 -6.61604,8.35246 -8.75105,13.19336 -2.5778,5.84472 -4.30494,12.30599 -4.94133,18.66666 -0.80713,8.06722 0.12948,16.26058 2.49178,24 5.50505,18.03548 21.28923,32.98511 41.28085,30.07617 20.08764,-2.92301 45.19726,-20.14876 59.28914,4.59147 16.50456,28.97624 -15.13598,58.13704 -40.62248,65.12142 -13.21224,3.62077 -29.04614,5.49805 -42.66666,3.64404 -126.3497,-17.19889 -126.08717,-227.968 1.33333,-243.05239 m 195.99997,0 c 34.7207,-4.09676 52.4521,18.17903 64.2665,47.6193 16.3531,40.75016 29.0115,83.54622 37.3292,126.66666 4.609,23.89331 11.2059,64.87092 -22.929,68.94238 -24.3693,2.90665 -26.4606,-25.19808 -45.3333,-30.64405 -14.3318,-4.13557 -49.6631,-7.38061 -62.5422,1.35702 -10.9511,7.42961 -13.2465,22.01806 -26.7912,27.52677 -11.3387,4.61149 -25.1049,1.03988 -32.6234,-8.53605 -14.3808,-18.316 -5.33482,-48.87784 -0.9908,-69.31274 7.7108,-36.27343 18.5124,-71.89029 31.3725,-106.66666 6.0155,-16.26741 12.6393,-35.61613 26.4681,-46.98559 9.5174,-7.82487 20.1007,-8.58976 31.7736,-9.96704 m 154.6667,0.0257 c 23.1623,-3.1455 31.7686,18.27002 35.7191,36.92692 5.8517,27.63558 5.6142,55.90023 5.6142,84 0,12.32031 -2.6265,28.05037 0.4239,39.99381 3.9352,15.40771 39.4446,8.52262 51.571,15.22949 15.8175,8.74829 15.6804,38.61588 4.8137,51.30444 -5.6705,6.62134 -15.1668,10.00871 -23.4752,11.75724 -23.2764,4.8986 -72.2408,13.31625 -91.5947,-4.32405 -11.0856,-10.10417 -12.7268,-29.28491 -13.8528,-43.29427 -2.2994,-28.60693 -3.8859,-56.56689 -3.8859,-85.33333 0,-25.58382 0.7019,-53.87573 7.6616,-78.66666 3.883,-13.83146 11.8636,-25.53735 27.0051,-27.59359 M 1396,676.40222 c 27.8567,-3.98152 34.7111,26.61629 38.0824,47.59774 7.6997,47.92073 6.7577,101.38223 -0.1883,149.33332 -2.6681,18.41911 -7.9108,43.02563 -29.8941,46.26546 -27.5872,4.06559 -35.2573,-24.90267 -38.2859,-46.26546 -6.889,-48.59326 -5.7949,-99.34846 -0.3138,-147.99999 2.1779,-19.33178 7.5096,-45.63077 30.5997,-48.93107 m 108,-0.0164 c 14.9776,-1.94637 30.3973,0.24097 45.3334,0.89502 19.9832,0.875 41.2493,0.56934 60,8.62451 17.16,7.37183 26.0695,30.33391 12.6224,45.84774 -13.2448,15.28044 -40.7108,16.15877 -59.2891,17.46094 -6.8512,0.48014 -20.8576,-0.30111 -21.7838,9.47216 -0.9773,10.31128 13.402,11.73788 20.4505,11.99488 19.8157,0.72241 55.7746,6.48323 46.928,34.65226 -5.2005,16.55932 -29.694,18.81282 -44.2613,19.88167 -7.2336,0.53076 -18.883,-0.0181 -22.2829,8.17692 -3.7621,9.06771 9.4135,12.42204 15.6162,13.04736 19.3179,1.94775 43.5028,0.97697 59.9795,13.07821 23.7702,17.45784 6.3385,46.54565 -15.9795,53.23152 -26.8041,8.02978 -57.5947,7.25098 -85.3334,7.25098 -11.9879,0 -26.658,-0.18929 -35.5607,-9.58431 -8.0047,-8.44743 -9.7405,-22.0398 -11.2797,-33.08236 -3.5043,-25.13875 -5.1596,-50.63313 -5.1596,-75.99999 0,-27.20589 1.1187,-54.37354 4.9722,-81.33333 3.2378,-22.65202 9.9074,-40.34969 35.0278,-43.61418 m 261.3334,96.94751 h 4 c 3.1719,-17.08529 2.3831,-34.7946 5.2262,-52 2.0666,-12.50651 4.645,-27.48266 13.8788,-36.92798 21.7954,-22.29492 45.4152,1.43986 50.9279,23.59465 13.132,52.77457 12.0571,120.20849 1.3683,173.33332 -1.3586,6.75228 -3.1157,13.68571 -5.9033,20 -1.7243,3.90576 -3.9352,7.49593 -6.9712,10.52669 -27.7184,27.67123 -59.0552,-19.89941 -72.3034,-39.86002 -10.3866,-15.64909 -23.5719,-33.09302 -30.2233,-50.66666 h -2.6667 c -5.5812,19.861 -3.7376,41.15152 -7.7438,61.33333 -2.0791,10.47379 -5.7393,22.74413 -13.8364,30.21297 -22.8093,21.03938 -45.4961,-4.04395 -50.4012,-26.21297 -8.8161,-39.84449 -8.2445,-83.51042 -5.4712,-124 1.4053,-20.51814 1.3149,-41.41585 7.3714,-61.33333 1.4463,-4.7561 3.6318,-9.1879 6.5607,-13.21297 25.9662,-35.68392 64.8337,14.52092 78.5977,35.87964 9.86,15.30053 21.3507,32.19352 27.5895,49.33333 m 162.6667,-96.95263 c 36.8517,-4.35059 77.1548,2.868 103.8807,30.33846 66.233,68.07812 34.8195,203.4016 -66.5474,213.05443 -23.125,2.20215 -61.7334,3.55843 -78.2131,-15.82715 -15.2587,-17.94954 -13.2641,-52.47151 -13.8064,-74.61311 -0.8086,-33.01009 -1.9639,-65.75293 2.3107,-98.66667 1.9546,-15.04972 3.208,-31.48201 15.0957,-42.41975 10.3056,-9.48226 24.0823,-10.30819 37.2798,-11.86621 m 252,0 c 41.3463,-4.86524 76.0488,28.48421 91.0402,63.6193 28.4088,66.58154 1.9495,171.90762 -80.3736,179.77359 -50.4814,4.82356 -90.4007,-36.96371 -100.2614,-83.7736 -14.5799,-69.21289 10.2513,-150.28287 89.5948,-159.61929 m -949.3334,82.28596 c 10.8148,-4.13737 7.8415,-28.43766 9.9331,-38.66666 1.062,-5.19352 2.5616,-14.73389 7.6996,-17.55859 3.4851,-1.91594 11.8163,4.5839 13.3653,-0.37867 2.9861,-9.56657 -13.4284,-12.22737 -18.8581,-8.04321 -13.1733,10.15145 -18.0059,50.03043 -12.1399,64.64713 m 166.6719,-67.07202 c -17.0978,4.4336 -16.1089,34.941 -17.7193,48.40536 -0.3745,3.13069 -3.511,18.18986 3.0474,17.28393 4.1294,-0.57039 3.8504,-6.27938 4.1131,-9.28393 0.8505,-9.72494 1.5603,-19.7968 3.7378,-29.33334 1.1179,-4.89599 2.8309,-15.03393 8.4331,-16.89306 3.6734,-1.21908 8.9089,4.62671 11.9598,1.27685 5.5944,-6.14249 -8.9521,-12.6538 -13.5719,-11.45581 m 282.6624,-0.0391 c -16.4127,3.29313 -18.0442,35.4082 -18.6152,48.4445 -0.1341,3.06364 -1.8748,18.45654 3.8405,17.43831 3.9502,-0.70386 3.9398,-6.4681 4.1061,-9.43831 0.5956,-10.63298 1.8665,-21.61825 4.3158,-32 1.0452,-4.43067 2.6536,-12.62671 7.8292,-14.05762 3.4299,-0.94824 9.063,4.46509 11.7408,0.99072 4.6437,-6.02547 -8.7204,-12.27986 -13.2172,-11.3776 m -789.3343,1.02987 c -12.71379,1.98576 -25.64795,6.33178 -36.00001,14.13891 -1.86572,1.40707 -14.26757,11.44515 -6.33642,12.67383 5.81453,0.90088 12.36564,-6.21159 17.00309,-8.89705 12.76009,-7.38924 27.38347,-5.60132 39.67489,-11.48975 11.42912,-5.47534 -11.0551,-6.93929 -14.34155,-6.42594 m 192,0.0381 c -19.1747,3.62492 -25.3996,23.54224 -31.7336,39.37655 -1.0131,2.53287 -9.7587,21.45101 -1.5791,20.10498 3.8271,-0.62989 5.548,-6.43758 6.8446,-9.43832 3.9731,-9.19482 6.6869,-19.4458 11.9588,-27.99902 7.9372,-12.87711 17.2709,-9.00814 27.2058,-16.23348 8.4703,-6.16015 -9.9482,-6.33024 -12.6965,-5.81071 m 400,46.04321 c 13.7634,-1.07226 8.0008,-22.54215 13.5195,-31.92692 4.5126,-7.67366 14.0494,-5.9899 21.1472,-9.40641 -3.7339,-9.28849 -20.4268,-5.97412 -26.1081,0.2994 -8.3488,9.21899 -8.5508,29.28214 -8.5586,41.03393 m 433.3272,-46.02156 c -18.5285,2.58887 -23.2987,20.54346 -25.105,36.68823 -0.4325,3.86524 -4.4704,20.17692 2.4497,20.17692 6.6346,0 5.4958,-14.62036 6.1008,-18.84359 1.2599,-8.79508 2.0769,-18.45792 8.8447,-25.02986 3.4101,-3.31152 13.312,-4.11304 14.714,-8.62964 1.3522,-4.35644 -4.2296,-4.74975 -7.0042,-4.36206 m 256.0062,-0.0741 c -15.045,2.13021 -29.1086,8.69458 -39.9476,19.48251 -1.9753,1.9659 -16.7637,17.76546 -6.6729,17.76546 5.8031,0 11.8946,-9.95109 15.9538,-13.41773 12.3897,-10.58064 26.5845,-9.86214 39.57,-17.3374 8.4639,-4.87231 -5.5633,-6.96574 -8.9033,-6.49284 M 838.73359,724.2345 c -5.23804,2.2596 -5.58805,12.5026 0.98763,8.98356 3.92033,-2.09799 5.08423,-11.60287 -0.98763,-8.98356 m 1276.46601,13.21402 c -4.3468,2.54346 -4.6673,14.14226 1.6667,10.4362 4.5545,-2.66487 4.8771,-14.26497 -1.6667,-10.4362 m -631.5689,8 c -3.9744,2.85425 -1.0828,12.42888 3.5896,8.26856 3.158,-2.81209 1.0859,-11.6263 -3.5896,-8.26856 m 473.7089,5.98145 c -13.3015,3.88216 -9.6099,23.53865 -8.3869,33.90332 2.5059,21.23706 -13.1427,70.10579 25.7131,59.42179 10.3404,-2.84335 13.3925,-15.63167 15.434,-24.75513 5.1714,-23.11051 4.6779,-79.49674 -32.7602,-68.56998 m 222.6614,0.005 c -8.4957,2.33056 -12.3251,11.49007 -14.4567,19.23144 -4.6831,17.0083 -4.6964,37.74056 0.3755,54.66667 2.6553,8.86132 9.4541,21.85823 20.746,18.87451 24.3976,-6.44678 20.347,-55.84945 15.039,-73.54118 -2.8642,-9.54687 -9.5353,-22.5695 -21.7038,-19.23144 m -1136.9876,7.46598 c -4.5029,2.35286 -1.6818,10.87126 2.8734,7.65023 3.1464,-2.22477 1.5839,-9.97933 -2.8734,-7.65023 m 335.6533,14.43213 c 14.0189,-4.25619 -3.8865,-17.11336 0,0 M 1096,791.99995 c -2.7319,5.13078 -4.6333,10.42521 -6.2747,16 -1.669,5.66879 -5.7233,15.20508 -3.3498,21.03394 2.6782,6.57706 15.0859,7.17114 19.4867,2.28084 6.9271,-7.69743 -3.3701,-33.64542 -9.8622,-39.31478"
       id="path105" />
  </g>
</svg>
